<svg xmlns="http://www.w3.org/2000/svg" width="40" height="40"><path fill="#fff" d="M19.94 0C31.017 0 40 8.954 40 20c0 11.045-8.982 20-20.06 20C8.86 40-.12 31.045-.12 20c0-11.046 8.98-20 20.06-20zM3.89 20c0 3.861 1.372 7.403 3.657 10.168 1.774-2.93 6.067-8.56 13.816-10.727a80.203 80.203 0 00-1.552-3.126c-7.325 2.83-12.842 3.016-15.895 2.773-.017.302-.026.606-.026.912zm16.05 16a16.03 16.03 0 006.46-1.35c-.806-4.4-2.19-8.605-3.79-12.413-4.543 1.245-9.28 4.126-12.832 10.146A16.012 16.012 0 0019.939 36zM13.088 5.527c-4.326 2.04-7.591 5.95-8.744 10.684 4.078.04 9.508-.657 14.148-2.317a83.762 83.762 0 00-5.404-8.367zm19.137 4.178c-3.292 2.226-6.387 3.945-9.25 5.268a67.725 67.725 0 011.793 3.785c3.23-.405 6.953-.219 11.215.873a15.905 15.905 0 00-3.758-9.926zM29.25 33.033c3.502-2.491 5.958-6.35 6.582-10.796-1.97-.489-5.685-1.158-9.9-.648 2.222 5.756 3.11 10.269 3.318 11.444zM19.94 4c-1.313 0-2.59.157-3.81.453a57.392 57.392 0 015.543 8.108c4.187-1.972 6.909-4.076 8.163-5.158A16.01 16.01 0 0019.939 4z"/></svg>