<svg xmlns="http://www.w3.org/2000/svg" width="43" height="36"><path fill="#fff" d="M42.795 4.666l-4.012 4v.667c0 .731-.118 1.43-.29 2.108-.093 5.502-1.85 12.8-9.072 18.559C15.217 41.329 0 31.333 0 31.333c12.036 0 12.036-4 12.036-4C9.36 27.333 4.012 22 4.012 22c1.337 1.333 4.012 0 4.012 0-6.687-4-6.687-8-6.687-8 1.337 1.333 4.012 0 4.012 0C-1.338 8.666 2.674 2 2.674 2c1.338 6.666 18.723 9.333 18.723 9.333l.221-.11c-.136-.61-.22-1.906-.22-2.557 0-4.786 3.891-8 8.692-8 2.642 0 4.98 1.201 6.575 3.056l.78-.389L41.458.666 38.783 6z"/></svg>